<?xml version="1.0" encoding="UTF-8" standalone="no"?>
<!-- Created with Inkscape (http://www.inkscape.org/) -->

<svg
   width="1920"
   height="1080"
   viewBox="0 0 508 285.75"
   version="1.1"
   id="svg35"
   inkscape:version="1.2.2 (b0a8486541, 2022-12-01)"
   sodipodi:docname="kalimat-banner-transparent-border-white.svg"
   xml:space="preserve"
   xmlns:inkscape="http://www.inkscape.org/namespaces/inkscape"
   xmlns:sodipodi="http://sodipodi.sourceforge.net/DTD/sodipodi-0.dtd"
   xmlns:xlink="http://www.w3.org/1999/xlink"
   xmlns="http://www.w3.org/2000/svg"
   xmlns:svg="http://www.w3.org/2000/svg"><sodipodi:namedview
     id="namedview37"
     pagecolor="#ffffff"
     bordercolor="#000000"
     borderopacity="0.25"
     inkscape:showpageshadow="2"
     inkscape:pageopacity="0.0"
     inkscape:pagecheckerboard="0"
     inkscape:deskcolor="#d1d1d1"
     inkscape:document-units="mm"
     showgrid="false"
     showguides="false"
     inkscape:zoom="0.33197215"
     inkscape:cx="950.38093"
     inkscape:cy="481.96814"
     inkscape:window-width="1366"
     inkscape:window-height="703"
     inkscape:window-x="0"
     inkscape:window-y="0"
     inkscape:window-maximized="1"
     inkscape:current-layer="layer1" /><defs
     id="defs32"><linearGradient
       inkscape:collect="always"
       id="linearGradient2151"><stop
         style="stop-color:#000000;stop-opacity:1;"
         offset="0"
         id="stop2147" /><stop
         style="stop-color:#008080;stop-opacity:1"
         offset="1"
         id="stop2149" /></linearGradient><linearGradient
       inkscape:collect="always"
       id="linearGradient2145"><stop
         style="stop-color:#000000;stop-opacity:1;"
         offset="0"
         id="stop2141" /><stop
         style="stop-color:#008080;stop-opacity:1"
         offset="1"
         id="stop2143" /></linearGradient><linearGradient
       inkscape:collect="always"
       id="linearGradient2133"><stop
         style="stop-color:#000000;stop-opacity:1;"
         offset="0"
         id="stop2129" /><stop
         style="stop-color:#008080;stop-opacity:1"
         offset="1"
         id="stop2131" /></linearGradient><linearGradient
       inkscape:collect="always"
       xlink:href="#linearGradient2145"
       id="linearGradient2135"
       x1="387.34653"
       y1="172.60144"
       x2="280.34219"
       y2="170.19904"
       gradientUnits="userSpaceOnUse" /><linearGradient
       inkscape:collect="always"
       xlink:href="#linearGradient2133"
       id="linearGradient2137"
       x1="68.417526"
       y1="45.826965"
       x2="-154.80179"
       y2="40.815372"
       gradientUnits="userSpaceOnUse" /><linearGradient
       inkscape:collect="always"
       xlink:href="#linearGradient2151"
       id="linearGradient2139"
       x1="56.112862"
       y1="7.5720129"
       x2="4.4220672"
       y2="5.8150582"
       gradientUnits="userSpaceOnUse" /></defs><g
     inkscape:label="Layer 1"
     inkscape:groupmode="layer"
     id="layer1"><g
       aria-label="كلمات"
       transform="matrix(3.975386,0,0,3.975386,-1063.6147,-522.27908)"
       id="text820"
       style="font-size:50.8px;font-family:Zain;-inkscape-font-specification:Zain;white-space:pre;stroke-width:0.79866458;fill-opacity:1;fill:url(#linearGradient2135);stroke:#ffffff;stroke-opacity:1;stroke-dasharray:none"><path
         d="m 383.3608,181.21509 h -17.1196 v -3.7592 h 16.9672 q 2.032,0 3.302,-1.3208 1.3208,-1.3716 1.3208,-4.1148 0,-2.9464 -1.4224,-4.1656 -1.3716,-1.2192 -3.2004,-1.2192 h -9.9568 q -2.6416,0 -2.6416,-2.1336 v -0.9144 q 0,-0.6096 0.1524,-1.1684 0.2032,-0.5588 0.762,-0.9144 l 12.2428,-8.382 q 0.254,-0.254 0.4572,-0.1016 1.016,0.7112 0.9652,1.9304 -0.0508,1.2192 -1.1684,1.9812 l -8.636,5.8928 q -0.2032,0.2032 0.0508,0.2032 h 7.9248 q 2.1844,0 4.1148,0.9652 1.9304,0.9144 3.0988,2.9464 1.2192,2.032 1.2192,5.2832 0,3.0988 -1.2192,5.1308 -1.1684,1.9812 -3.0988,2.9464 -1.9304,0.9144 -4.1148,0.9144 z"
         id="path945"
         style="fill-opacity:1;fill:url(#linearGradient2135);stroke:#ffffff;stroke-opacity:1;stroke-width:0.79866458;stroke-dasharray:none" /><path
         d="m 364.05678,177.45589 h 2.7432 v 3.7592 h -2.9972 q -1.9812,0 -3.4036,-0.7112 -1.4224,-0.762 -2.286,-1.8796 -2.1336,2.5908 -6.1976,2.5908 h -1.3208 v -3.7592 h 1.4224 q 2.032,0 3.048,-1.3208 1.016,-1.3716 1.016,-3.5052 v -16.2052 q 0,-1.6764 0.8128,-2.54 0.8636,-0.9144 2.286,-0.9144 h 0.3556 q 0.4064,0 0.4064,0.4064 v 19.304 q 0.0508,2.4384 1.2192,3.6068 1.1684,1.1684 2.8956,1.1684 z"
         id="path947"
         style="fill-opacity:1;fill:url(#linearGradient2135);stroke:#ffffff;stroke-opacity:1;stroke-width:0.79866458;stroke-dasharray:none" /><path
         d="m 348.41038,177.45589 h 2.794 v 3.7592 h -2.6416 q -1.9812,0 -3.4544,-0.6096 -1.4732,-0.6604 -2.4892,-1.6256 -1.0668,1.3716 -2.7432,2.032 -1.6256,0.6604 -3.7084,0.6604 -2.4892,0 -4.7752,-0.6096 -2.2352,-0.6604 -4.5212,-1.8796 -1.27,1.4224 -2.7432,1.7272 -1.4732,0.3048 -3.2512,0.3048 h -0.4572 v -3.7592 h 0.4064 q 1.3716,0 2.1844,-0.3048 0.8636,-0.3556 1.5748,-1.4224 0.762,-1.1176 1.7272,-3.302 1.27,-2.6416 2.4892,-4.9784 1.27,-2.3876 2.9464,-3.8608 1.6764,-1.524 4.1148,-1.524 2.9972,0 4.826,1.5748 1.8796,1.524 2.7432,3.9624 0.9144,2.4384 0.9144,5.1308 v 0.1524 q 0.0508,2.3368 1.27,3.4544 1.2192,1.1176 2.794,1.1176 z m -12.0904,0.5588 q 1.016,-0.0508 1.9304,-0.4572 0.9144,-0.4064 1.4732,-1.4732 0.6096,-1.1176 0.6096,-3.2004 0,-3.9116 -1.27,-5.5372 -1.27,-1.6764 -3.048,-1.6764 -1.6256,0 -2.9972,2.2352 -1.3208,2.2352 -2.794,5.5372 -0.3556,0.8128 -0.6604,1.4224 -0.3048,0.6096 -0.5588,1.0668 2.1844,1.2192 4.1148,1.6764 1.9304,0.4572 3.2004,0.4064 z"
         id="path949"
         style="fill-opacity:1;fill:url(#linearGradient2135);stroke:#ffffff;stroke-opacity:1;stroke-width:0.79866458;stroke-dasharray:none" /><path
         d="m 321.02923,181.21509 h -2.6416 q -3.81,0 -5.9436,-2.2352 -2.1336,-2.286 -2.1336,-6.2992 v -16.256 q 0,-1.6764 0.8128,-2.54 0.8636,-0.9144 2.286,-0.9144 h 0.3556 q 0.4064,0 0.4064,0.4064 v 19.2532 q 0,2.1336 1.016,3.5052 1.0668,1.3208 3.0988,1.3208 h 2.7432 z"
         id="path951"
         style="fill-opacity:1;fill:url(#linearGradient2135);stroke:#ffffff;stroke-opacity:1;stroke-width:0.79866458;stroke-dasharray:none" /><path
         d="m 290.95565,162.06349 q -0.9652,0 -1.6256,-0.6604 -0.6604,-0.6604 -0.6604,-1.6256 0,-1.016 0.6604,-1.6256 0.6604,-0.6604 1.6256,-0.6604 0.9144,0 1.524,0.6604 0.6604,0.6096 0.6604,1.6256 0,0.9652 -0.6604,1.6256 -0.6096,0.6604 -1.524,0.6604 z"
         id="path1093"
         style="fill-opacity:1;fill:url(#linearGradient2135);stroke:#ffffff;stroke-opacity:1;stroke-width:0.79866458;stroke-dasharray:none" /><path
         d="m 284.50405,162.06349 q -0.9652,0 -1.5748,-0.6604 -0.6096,-0.6604 -0.6096,-1.6256 0,-1.016 0.6096,-1.6256 0.6096,-0.6604 1.5748,-0.6604 0.9652,0 1.5748,0.6604 0.6604,0.6096 0.6604,1.6256 0,0.9652 -0.6604,1.6256 -0.6096,0.6604 -1.5748,0.6604 z"
         id="path953"
         style="fill-opacity:1;fill:url(#linearGradient2135);stroke:#ffffff;stroke-opacity:1;stroke-width:0.79866458;stroke-dasharray:none" /></g><g
       style="fill:url(#linearGradient2139);fill-opacity:1;stroke:#ffffff;stroke-opacity:1;stroke-width:0.4747095;stroke-dasharray:none"
       id="g1280"
       transform="matrix(8.2293872,0,0,5.4358082,14.462797,122.71826)"><path
         d="M 8.5,2.687 C 9.154,1.998 10.282,1.801 11.612,1.935 12.846,2.059 14.115,2.458 15,2.828 v 9.923 C 14.082,12.401 12.893,12.059 11.713,11.941 10.619,11.83 9.435,11.902 8.5,12.433 Z M 8,1.783 C 7.015,0.936 5.587,0.81 4.287,0.94 2.773,1.093 1.245,1.612 0.293,2.045 A 0.5,0.5 0 0 0 0,2.5 v 11 a 0.5,0.5 0 0 0 0.707,0.455 c 0.882,-0.4 2.303,-0.881 3.68,-1.02 1.409,-0.142 2.59,0.087 3.223,0.877 a 0.5,0.5 0 0 0 0.78,0 c 0.633,-0.79 1.814,-1.019 3.222,-0.877 1.378,0.139 2.8,0.62 3.681,1.02 A 0.5,0.5 0 0 0 16,13.5 V 2.5 A 0.5,0.5 0 0 0 15.707,2.045 C 14.755,1.612 13.227,1.093 11.713,0.94 10.413,0.809 8.985,0.936 8,1.783"
         id="path1271"
         style="fill-opacity:1;fill:url(#linearGradient2139);stroke:#ffffff;stroke-opacity:1;stroke-width:0.4747095;stroke-dasharray:none" /></g><g
       style="fill:url(#linearGradient2137);fill-opacity:1;stroke:#ffffff;stroke-opacity:1;stroke-width:1.66607597;stroke-dasharray:none"
       id="g2016"
       transform="matrix(1.9056754,0,0,1.9056754,345.85567,76.546948)"><path
         d="m 0.490206,-21.423329 c 5.1375461,-5.165339 17.984532,3.871689 0,15.4929309 -17.984519,-11.6212419 -5.1375492,-20.6551829 0,-15.4929309"
         id="path2004"
         style="stroke-width:1.66607597;fill-opacity:1;fill:#009e9e;stroke:#ffffff;stroke-opacity:1;stroke-dasharray:none" /><path
         d="M 15.750814,-6.1871043 A 17.744232,17.744232 0 0 1 7.3886552,1.101117 q 0.079534,0.1879094 0.1332059,0.3923845 L 11.183842,15.969879 a 2.7430953,2.7430953 0 0 1 -5.3181392,1.34728 L 2.2037308,2.8407793 A 2.7425397,2.7425397 0 0 1 2.1296735,2.4294367 l 0.00474,0.00271 a 17.826509,17.826509 0 1 1 13.6163815,-8.61925 m -23.03617,3.8269189 A 15.08397,15.08397 0 1 0 8.1637796,-28.272112 15.083971,15.083971 0 0 0 -7.2853761,-2.3601799"
         id="path2006"
         style="stroke-width:1.66607597;fill-opacity:1;fill:url(#linearGradient2137);stroke:#ffffff;stroke-opacity:1;stroke-dasharray:none" /></g></g></svg>
